<svg data-v-fde0c5aa="" xmlns="http://www.w3.org/2000/svg" viewBox="0 0 300 300" class="iconLeft"><!----><defs data-v-fde0c5aa=""><!----></defs><rect data-v-fde0c5aa="" fill="#EDE3FB" x="0" y="0" width="300px" height="300px" class="logo-background-square"></rect><defs data-v-fde0c5aa=""><!----></defs><g data-v-fde0c5aa="" id="7d108253-5e5d-476f-86b7-d94c5b790338" fill="#221447" transform="matrix(2.5598977254084847,0,0,2.5598977254084847,105.54146780470705,129.8920028603448)"><path d="M1.65 1.46L7.49 1.46L7.49 0.70L0.90 0.70L0.90 10.51L1.65 10.51L1.65 6.08L7.29 6.08L7.29 5.36L1.65 5.36ZM9.03 0.70L9.03 10.50L9.72 10.50L9.72 0.70ZM12.32 3.56L12.32 10.50L11.63 10.50L11.63 3.56ZM11.44 1.33C11.44 2.06 12.54 2.06 12.54 1.33C12.54 0.60 11.44 0.60 11.44 1.33ZM19.17 4.09C18.63 3.71 17.91 3.46 17.21 3.46C15.41 3.46 13.96 4.68 13.96 6.83C13.96 8.68 15.20 10.18 17.21 10.18C18.49 10.18 19.82 10.77 19.82 12.25C19.82 13.72 18.59 14.34 17.21 14.34C15.82 14.34 14.62 13.66 14.62 12.25L13.93 12.25C13.93 14 15.37 15.01 17.21 15.01C19.04 15.01 20.50 14.11 20.50 12.25C20.50 11.06 19.82 10.21 18.61 9.77C19.75 9.25 20.47 8.04 20.47 6.83C20.47 5.71 20.10 5.01 19.61 4.48L20.29 3.70L19.84 3.30ZM17.21 4.14C18.63 4.14 19.80 5.08 19.80 6.83C19.80 8.26 18.63 9.49 17.21 9.49C15.62 9.49 14.64 8.26 14.64 6.83C14.64 5.03 15.79 4.14 17.21 4.14ZM22.02 0.70L22.02 10.50L22.71 10.50L22.71 6.71C22.71 5.26 23.72 4.14 25.17 4.14C26.73 4.14 27.40 5.11 27.40 6.54L27.40 10.50L28.07 10.50L28.07 6.54C28.07 4.73 27.10 3.49 25.17 3.49C24.21 3.50 23.24 3.88 22.68 4.87L22.68 0.70ZM30.77 1.57L30.77 3.58L29.30 3.58L29.30 4.16L30.77 4.16L30.77 8.37C30.77 9.73 31.25 10.60 32.72 10.60C33.15 10.60 33.59 10.46 34.02 10.25L33.78 9.69C33.43 9.86 33.05 9.97 32.72 9.97C31.64 9.97 31.44 9.31 31.44 8.37L31.44 4.16L33.80 4.16L33.80 3.58L31.44 3.58L31.44 1.50ZM35.50 0.70L35.50 10.50L41.78 10.50L41.78 9.79L36.26 9.79L36.26 0.70ZM43.76 3.56L43.76 10.50L43.08 10.50L43.08 3.56ZM42.88 1.33C42.88 2.06 43.99 2.06 43.99 1.33C43.99 0.60 42.88 0.60 42.88 1.33ZM45.72 3.58L45.72 10.50L46.41 10.50L46.41 6.65C46.41 5.22 47.40 4.14 48.83 4.13C50.33 4.12 51.30 4.96 51.30 6.52L51.30 10.50L51.98 10.50L51.98 6.51C51.98 4.59 50.71 3.46 48.86 3.46C47.89 3.47 46.93 3.86 46.40 4.82L46.40 3.58ZM56.90 10.60C58.00 10.60 59.21 10.15 59.88 9.27L59.39 8.88C58.87 9.56 57.81 9.93 56.90 9.93C55.47 9.93 54.22 8.99 54.08 7.36L60.31 7.36C60.58 4.66 58.84 3.47 56.90 3.47C54.95 3.47 53.38 4.97 53.38 7.04C53.38 9.24 54.95 10.60 56.90 10.60ZM54.08 6.76C54.24 5.07 55.47 4.10 56.90 4.10C58.56 4.10 59.68 5.05 59.70 6.76Z"></path></g><defs data-v-fde0c5aa=""><linearGradient data-v-fde0c5aa="" gradientTransform="rotate(25)" id="dd3fd112-7465-4500-90bc-705d67c113be" x1="0%" y1="0%" x2="100%" y2="0%"><stop data-v-fde0c5aa="" offset="0%" stop-color="#0076DD" stop-opacity="1"></stop><stop data-v-fde0c5aa="" offset="100%" stop-color="#E600E9" stop-opacity="1"></stop></linearGradient></defs><g data-v-fde0c5aa="" id="5c2afa78-2624-4d12-989c-96484b38e376" stroke="none" fill="url(#dd3fd112-7465-4500-90bc-705d67c113be)" transform="matrix(0.6091562493842801,0,0,0.6091562493842801,192.10630431727068,-92.56491054240387)"><path d="M-175.5 443l1.1-1.1c2.3-2.3 3.7-5 4.2-8.1.4-2.9 0-6.8-1.2-11.5l5.4-5.4c1.3-1.3 1.3-3.3 0-4.5-1.3-1.3-3.3-1.3-4.5 0l-2.1 2.1-1.6-10.8 5.3-5.3c1.3-1.3 1.3-3.3 0-4.5-1.3-1.3-3.3-1.3-4.5 0l-1.9 1.9-2.4-16.7c7.7-7.7 12.9-13.5 15.5-17.4 2.6-3.9 3.2-6.5 1.8-7.9-1.4-1.4-4.1-.7-8 2-4 2.7-9.7 7.8-17.2 15.4l-16.7-2.4 1.9-1.9c1.3-1.3 1.3-3.3 0-4.5-1.3-1.3-3.3-1.3-4.5 0l-5.3 5.3-10.8-1.6 2.1-2.2c1.3-1.3 1.3-3.3 0-4.5-1.3-1.3-3.3-1.3-4.5 0l-5.4 5.4c-4.8-1.2-8.6-1.6-11.5-1.2-3.1.4-5.8 1.8-8.1 4.2l-1.1 1c11.2 4 20.6 7.7 28.2 11.1 7.6 3.4 12.3 6 14 7.7 1.9 1.9-.3 6.3-6.5 13.2-4.5 5-8.2 9.4-11.2 13.1-1.1.2-3.1.1-6-.3s-6.9-1.1-11.9-2.1c-.1 0-.2.1-.4.2-2.5 1.6-4.6 3.1-6.4 4.5 3.2 1.3 6.1 2.7 8.9 4.1 2.5 1.3 4.7 2.6 6.9 4l-1.9 1.9c-.9.9-.9 2.3 0 3.2.9.9 2.3.9 3.2 0l1.9-1.9c1.3 2 2.6 4.3 3.9 6.7 1.4 2.7 2.8 5.7 4.2 9.1.9-1.1 1.7-2.3 2.5-3.4s1.5-2.2 2.2-3.4c-1-5-1.6-8.9-2-11.8-.4-2.9-.5-5-.3-6.1 4-3 8.6-6.9 13.8-11.6 6.5-5.8 10.7-7.8 12.5-6 1.7 1.7 4.3 6.5 7.8 14.2 3.1 7.4 6.7 16.8 10.6 27.8"></path></g><!----></svg>