<svg data-v-423bf9ae="" xmlns="http://www.w3.org/2000/svg" viewBox="0 0 249.21498077689864 60" class="font"><!----><!----><!----><g data-v-423bf9ae="" id="85d6cabb-c390-4e42-b966-f3e0f7dbdc8b" fill="black" transform="matrix(4.192871994451495,0,0,4.192871994451495,-3.7735862839697916,-2.935009690482019)"><path d="M1.65 1.46L7.49 1.46L7.49 0.70L0.90 0.70L0.90 10.51L1.65 10.51L1.65 6.08L7.29 6.08L7.29 5.36L1.65 5.36ZM9.03 0.70L9.03 10.50L9.72 10.50L9.72 0.70ZM12.32 3.56L12.32 10.50L11.63 10.50L11.63 3.56ZM11.44 1.33C11.44 2.06 12.54 2.06 12.54 1.33C12.54 0.60 11.44 0.60 11.44 1.33ZM19.17 4.09C18.63 3.71 17.91 3.46 17.21 3.46C15.41 3.46 13.96 4.68 13.96 6.83C13.96 8.68 15.20 10.18 17.21 10.18C18.49 10.18 19.82 10.77 19.82 12.25C19.82 13.72 18.59 14.34 17.21 14.34C15.82 14.34 14.62 13.66 14.62 12.25L13.93 12.25C13.93 14 15.37 15.01 17.21 15.01C19.04 15.01 20.50 14.11 20.50 12.25C20.50 11.06 19.82 10.21 18.61 9.77C19.75 9.25 20.47 8.04 20.47 6.83C20.47 5.71 20.10 5.01 19.61 4.48L20.29 3.70L19.84 3.30ZM17.21 4.14C18.63 4.14 19.80 5.08 19.80 6.83C19.80 8.26 18.63 9.49 17.21 9.49C15.62 9.49 14.64 8.26 14.64 6.83C14.64 5.03 15.79 4.14 17.21 4.14ZM22.02 0.70L22.02 10.50L22.71 10.50L22.71 6.71C22.71 5.26 23.72 4.14 25.17 4.14C26.73 4.14 27.40 5.11 27.40 6.54L27.40 10.50L28.07 10.50L28.07 6.54C28.07 4.73 27.10 3.49 25.17 3.49C24.21 3.50 23.24 3.88 22.68 4.87L22.68 0.70ZM30.77 1.57L30.77 3.58L29.30 3.58L29.30 4.16L30.77 4.16L30.77 8.37C30.77 9.73 31.25 10.60 32.72 10.60C33.15 10.60 33.59 10.46 34.02 10.25L33.78 9.69C33.43 9.86 33.05 9.97 32.72 9.97C31.64 9.97 31.44 9.31 31.44 8.37L31.44 4.16L33.80 4.16L33.80 3.58L31.44 3.58L31.44 1.50ZM35.50 0.70L35.50 10.50L41.78 10.50L41.78 9.79L36.26 9.79L36.26 0.70ZM43.76 3.56L43.76 10.50L43.08 10.50L43.08 3.56ZM42.88 1.33C42.88 2.06 43.99 2.06 43.99 1.33C43.99 0.60 42.88 0.60 42.88 1.33ZM45.72 3.58L45.72 10.50L46.41 10.50L46.41 6.65C46.41 5.22 47.40 4.14 48.83 4.13C50.33 4.12 51.30 4.96 51.30 6.52L51.30 10.50L51.98 10.50L51.98 6.51C51.98 4.59 50.71 3.46 48.86 3.46C47.89 3.47 46.93 3.86 46.40 4.82L46.40 3.58ZM56.90 10.60C58.00 10.60 59.21 10.15 59.88 9.27L59.39 8.88C58.87 9.56 57.81 9.93 56.90 9.93C55.47 9.93 54.22 8.99 54.08 7.36L60.31 7.36C60.58 4.66 58.84 3.47 56.90 3.47C54.95 3.47 53.38 4.97 53.38 7.04C53.38 9.24 54.95 10.60 56.90 10.60ZM54.08 6.76C54.24 5.07 55.47 4.10 56.90 4.10C58.56 4.10 59.68 5.05 59.70 6.76Z"></path></g><!----><!----></svg>